<svg width="202" height="59" viewBox="0 0 202 59" fill="none" xmlns="http://www.w3.org/2000/svg">
<ellipse cx="28.7112" cy="28.9636" rx="28.7112" ry="28.9636" fill="#4998F5"/>
<path d="M59.5964 44.3509V49.6909H58.3564V45.4109H55.7264V49.6909H54.4764V44.3509H59.5964ZM63.713 49.7609C63.1597 49.7609 62.663 49.6443 62.223 49.4109C61.783 49.1776 61.4397 48.8543 61.193 48.4409C60.9463 48.0209 60.823 47.5476 60.823 47.0209C60.823 46.4943 60.9463 46.0243 61.193 45.6109C61.4397 45.1976 61.7797 44.8743 62.213 44.6409C62.653 44.4076 63.153 44.2909 63.713 44.2909C64.2397 44.2909 64.6997 44.3976 65.093 44.6109C65.493 44.8243 65.793 45.1309 65.993 45.5309L65.033 46.0909C64.8797 45.8443 64.6863 45.6609 64.453 45.5409C64.2263 45.4143 63.9763 45.3509 63.703 45.3509C63.2363 45.3509 62.8497 45.5043 62.543 45.8109C62.2363 46.1109 62.083 46.5143 62.083 47.0209C62.083 47.5276 62.233 47.9343 62.533 48.2409C62.8397 48.5409 63.2297 48.6909 63.703 48.6909C63.9763 48.6909 64.2263 48.6309 64.453 48.5109C64.6863 48.3843 64.8797 48.1976 65.033 47.9509L65.993 48.5109C65.7863 48.9109 65.483 49.2209 65.083 49.4409C64.6897 49.6543 64.233 49.7609 63.713 49.7609ZM67.0935 44.3509H68.3435V47.8709L71.2935 44.3509H72.4335V49.6909H71.1835V46.1709L68.2435 49.6909H67.0935V44.3509ZM77.455 49.6909L76.085 47.8409L74.705 49.6909H73.325L75.405 46.9809L73.415 44.3509H74.805L76.115 46.1009L77.425 44.3509H78.775L76.775 46.9609L78.865 49.6909H77.455ZM81.9638 49.7609C81.4238 49.7609 80.9371 49.6443 80.5038 49.4109C80.0704 49.1776 79.7304 48.8543 79.4838 48.4409C79.2438 48.0209 79.1238 47.5476 79.1238 47.0209C79.1238 46.4943 79.2438 46.0243 79.4838 45.6109C79.7304 45.1976 80.0704 44.8743 80.5038 44.6409C80.9371 44.4076 81.4238 44.2909 81.9638 44.2909C82.5104 44.2909 83.0004 44.4076 83.4338 44.6409C83.8671 44.8743 84.2038 45.1976 84.4438 45.6109C84.6904 46.0243 84.8138 46.4943 84.8138 47.0209C84.8138 47.5476 84.6904 48.0209 84.4438 48.4409C84.2038 48.8543 83.8671 49.1776 83.4338 49.4109C83.0004 49.6443 82.5104 49.7609 81.9638 49.7609ZM81.9638 48.6909C82.4238 48.6909 82.8038 48.5376 83.1038 48.2309C83.4038 47.9243 83.5538 47.5209 83.5538 47.0209C83.5538 46.5209 83.4038 46.1176 83.1038 45.8109C82.8038 45.5043 82.4238 45.3509 81.9638 45.3509C81.5038 45.3509 81.1238 45.5043 80.8238 45.8109C80.5304 46.1176 80.3838 46.5209 80.3838 47.0209C80.3838 47.5209 80.5304 47.9243 80.8238 48.2309C81.1238 48.5376 81.5038 48.6909 81.9638 48.6909ZM90.83 44.3509V49.6909H89.58V45.4109H87.58L87.53 46.4709C87.4967 47.1776 87.43 47.7709 87.33 48.2509C87.2367 48.7243 87.0734 49.1009 86.84 49.3809C86.6134 49.6543 86.3 49.7909 85.9 49.7909C85.7134 49.7909 85.4834 49.7543 85.21 49.6809L85.27 48.6309C85.3634 48.6509 85.4434 48.6609 85.51 48.6609C85.7634 48.6609 85.9534 48.5609 86.08 48.3609C86.2067 48.1543 86.2867 47.9109 86.32 47.6309C86.36 47.3443 86.3934 46.9376 86.42 46.4109L86.51 44.3509H90.83ZM94.8935 49.7609C94.3535 49.7609 93.8668 49.6443 93.4335 49.4109C93.0001 49.1776 92.6601 48.8543 92.4135 48.4409C92.1735 48.0209 92.0535 47.5476 92.0535 47.0209C92.0535 46.4943 92.1735 46.0243 92.4135 45.6109C92.6601 45.1976 93.0001 44.8743 93.4335 44.6409C93.8668 44.4076 94.3535 44.2909 94.8935 44.2909C95.4401 44.2909 95.9301 44.4076 96.3635 44.6409C96.7968 44.8743 97.1335 45.1976 97.3735 45.6109C97.6201 46.0243 97.7435 46.4943 97.7435 47.0209C97.7435 47.5476 97.6201 48.0209 97.3735 48.4409C97.1335 48.8543 96.7968 49.1776 96.3635 49.4109C95.9301 49.6443 95.4401 49.7609 94.8935 49.7609ZM94.8935 48.6909C95.3535 48.6909 95.7335 48.5376 96.0335 48.2309C96.3335 47.9243 96.4835 47.5209 96.4835 47.0209C96.4835 46.5209 96.3335 46.1176 96.0335 45.8109C95.7335 45.5043 95.3535 45.3509 94.8935 45.3509C94.4335 45.3509 94.0535 45.5043 93.7535 45.8109C93.4601 46.1176 93.3135 46.5209 93.3135 47.0209C93.3135 47.5209 93.4601 47.9243 93.7535 48.2309C94.0535 48.5376 94.4335 48.6909 94.8935 48.6909ZM103.078 45.4109H100.228V49.6909H98.9783V44.3509H103.078V45.4109ZM109.132 49.7609C108.592 49.7609 108.105 49.6443 107.672 49.4109C107.238 49.1776 106.898 48.8543 106.652 48.4409C106.412 48.0209 106.292 47.5476 106.292 47.0209C106.292 46.4943 106.412 46.0243 106.652 45.6109C106.898 45.1976 107.238 44.8743 107.672 44.6409C108.105 44.4076 108.592 44.2909 109.132 44.2909C109.678 44.2909 110.168 44.4076 110.602 44.6409C111.035 44.8743 111.372 45.1976 111.612 45.6109C111.858 46.0243 111.982 46.4943 111.982 47.0209C111.982 47.5476 111.858 48.0209 111.612 48.4409C111.372 48.8543 111.035 49.1776 110.602 49.4109C110.168 49.6443 109.678 49.7609 109.132 49.7609ZM109.132 48.6909C109.592 48.6909 109.972 48.5376 110.272 48.2309C110.572 47.9243 110.722 47.5209 110.722 47.0209C110.722 46.5209 110.572 46.1176 110.272 45.8109C109.972 45.5043 109.592 45.3509 109.132 45.3509C108.672 45.3509 108.292 45.5043 107.992 45.8109C107.698 46.1176 107.552 46.5209 107.552 47.0209C107.552 47.5209 107.698 47.9243 107.992 48.2309C108.292 48.5376 108.672 48.6909 109.132 48.6909ZM113.217 44.3509H114.467V46.5209H117.157V44.3509H118.407V49.6909H117.157V47.5809H114.467V49.6909H113.217V44.3509ZM124.922 44.3509V49.6909H123.672V45.4109H121.672L121.622 46.4709C121.588 47.1776 121.522 47.7709 121.422 48.2509C121.328 48.7243 121.165 49.1009 120.932 49.3809C120.705 49.6543 120.392 49.7909 119.992 49.7909C119.805 49.7909 119.575 49.7543 119.302 49.6809L119.362 48.6309C119.455 48.6509 119.535 48.6609 119.602 48.6609C119.855 48.6609 120.045 48.5609 120.172 48.3609C120.298 48.1543 120.378 47.9109 120.412 47.6309C120.452 47.3443 120.485 46.9376 120.512 46.4109L120.602 44.3509H124.922ZM128.595 44.2909C129.382 44.2909 129.982 44.4809 130.395 44.8609C130.815 45.2343 131.025 45.8009 131.025 46.5609V49.6909H129.845V49.0409C129.692 49.2743 129.472 49.4543 129.185 49.5809C128.905 49.7009 128.565 49.7609 128.165 49.7609C127.765 49.7609 127.415 49.6943 127.115 49.5609C126.815 49.4209 126.582 49.2309 126.415 48.9909C126.255 48.7443 126.175 48.4676 126.175 48.1609C126.175 47.6809 126.352 47.2976 126.705 47.0109C127.065 46.7176 127.629 46.5709 128.395 46.5709H129.775V46.4909C129.775 46.1176 129.662 45.8309 129.435 45.6309C129.215 45.4309 128.885 45.3309 128.445 45.3309C128.145 45.3309 127.849 45.3776 127.555 45.4709C127.269 45.5643 127.025 45.6943 126.825 45.8609L126.335 44.9509C126.615 44.7376 126.952 44.5743 127.345 44.4609C127.739 44.3476 128.155 44.2909 128.595 44.2909ZM128.425 48.8509C128.739 48.8509 129.015 48.7809 129.255 48.6409C129.502 48.4943 129.675 48.2876 129.775 48.0209V47.4009H128.485C127.765 47.4009 127.405 47.6376 127.405 48.1109C127.405 48.3376 127.495 48.5176 127.675 48.6509C127.855 48.7843 128.105 48.8509 128.425 48.8509ZM132.572 44.3509H133.822V47.8709L136.772 44.3509H137.912V49.6909H136.662V46.1709L133.722 49.6909H132.572V44.3509ZM135.162 43.7209C134.622 43.7209 134.209 43.5976 133.922 43.3509C133.642 43.0976 133.499 42.7309 133.492 42.2509H134.322C134.329 42.4909 134.402 42.6809 134.542 42.8209C134.689 42.9609 134.892 43.0309 135.152 43.0309C135.405 43.0309 135.605 42.9609 135.752 42.8209C135.905 42.6809 135.985 42.4909 135.992 42.2509H136.842C136.835 42.7309 136.689 43.0976 136.402 43.3509C136.115 43.5976 135.702 43.7209 135.162 43.7209ZM139.594 44.3509H140.844V46.5209H143.534V44.3509H144.784V49.6909H143.534V47.5809H140.844V49.6909H139.594V44.3509Z" fill="#373B86"/>
<path d="M60.0727 28.518C60.0727 43.2837 48.2071 55.2537 33.5701 55.2537C18.933 55.2537 7.06738 43.2837 7.06738 28.518C7.06738 13.7523 18.933 1.78238 33.5701 1.78238C48.2071 1.78238 60.0727 13.7523 60.0727 28.518Z" fill="white"/>
<path d="M57.4225 28.518C57.4225 42.7915 46.3479 54.3625 32.6866 54.3625C19.0254 54.3625 7.95081 42.7915 7.95081 28.518C7.95081 14.2445 19.0254 2.67355 32.6866 2.67355C46.3479 2.67355 57.4225 14.2445 57.4225 28.518Z" fill="#D15573"/>
<path d="M53.8888 28.518C53.8888 41.315 43.4074 51.689 30.4781 51.689C17.5487 51.689 7.06738 41.315 7.06738 28.518C7.06738 15.7211 17.5487 5.34714 30.4781 5.34714C43.4074 5.34714 53.8888 15.7211 53.8888 28.518Z" fill="white"/>
<path d="M58.404 37V23.454H61.966V24.936C62.3993 24.3467 62.9193 23.9047 63.526 23.61C64.15 23.298 64.8347 23.142 65.58 23.142C65.9267 23.1593 66.2127 23.194 66.438 23.246C66.6807 23.2807 66.8887 23.35 67.062 23.454V26.574C66.802 26.4527 66.516 26.366 66.204 26.314C65.892 26.2447 65.5713 26.21 65.242 26.21C64.5487 26.21 63.9073 26.3833 63.318 26.73C62.746 27.0767 62.2953 27.5793 61.966 28.238V37H58.404ZM72.901 37.234C71.445 37.234 70.2577 36.8527 69.339 36.09C68.4204 35.31 67.961 34.3047 67.961 33.074C67.961 31.7913 68.455 30.786 69.443 30.058C70.431 29.33 71.7917 28.966 73.525 28.966C74.0797 28.966 74.6344 29.0093 75.189 29.096C75.7437 29.1827 76.2897 29.3127 76.827 29.486V28.524C76.827 27.744 76.5844 27.1547 76.099 26.756C75.6137 26.3573 74.903 26.158 73.967 26.158C73.395 26.158 72.771 26.2533 72.095 26.444C71.4364 26.6173 70.6824 26.8947 69.833 27.276L68.533 24.65C69.5904 24.1647 70.613 23.8007 71.601 23.558C72.6064 23.3153 73.5944 23.194 74.565 23.194C76.385 23.194 77.7977 23.636 78.803 24.52C79.8257 25.3867 80.337 26.6173 80.337 28.212V37H76.827V36.064C76.255 36.4627 75.6484 36.7573 75.007 36.948C74.383 37.1387 73.681 37.234 72.901 37.234ZM71.367 32.996C71.367 33.516 71.5924 33.932 72.043 34.244C72.4937 34.5387 73.0917 34.686 73.837 34.686C74.4264 34.686 74.9637 34.6167 75.449 34.478C75.9517 34.322 76.411 34.1053 76.827 33.828V31.8C76.3937 31.6267 75.9344 31.5053 75.449 31.436C74.981 31.3493 74.487 31.306 73.967 31.306C73.1524 31.306 72.511 31.462 72.043 31.774C71.5924 32.0687 71.367 32.476 71.367 32.996ZM86.445 37.624L86.653 37.13L81.375 23.454H85.301L88.655 32.684L92.503 23.454H96.351L90.111 38.066C89.4177 39.6953 88.6117 40.8567 87.693 41.55C86.7743 42.2433 85.5783 42.59 84.105 42.59C83.793 42.59 83.4897 42.5727 83.195 42.538C82.9177 42.5207 82.6923 42.486 82.519 42.434V39.366C82.6923 39.4007 82.8743 39.4267 83.065 39.444C83.2557 39.4613 83.4897 39.47 83.767 39.47C84.4083 39.47 84.9457 39.314 85.379 39.002C85.8297 38.69 86.185 38.2307 86.445 37.624Z" fill="#373B86"/>
<path d="M25.8987 36.9455H15.2127V18.3815H25.8987V21.6055H19.1387V25.6875H25.4307V28.9115H19.1387V33.6955H25.8987V36.9455ZM46.1156 22.4895C47.7276 22.4895 48.9409 22.9055 49.7556 23.7375C50.5876 24.5521 51.0036 25.8695 51.0036 27.6895V36.9455H47.1296V28.6515C47.1296 26.6061 46.4189 25.5835 44.9976 25.5835C43.9749 25.5835 43.2469 25.9475 42.8136 26.6755C42.3802 27.4035 42.1636 28.4521 42.1636 29.8215V36.9455H38.2896V28.6515C38.2896 26.6061 37.5789 25.5835 36.1576 25.5835C35.0829 25.5835 34.3376 25.9908 33.9216 26.8055C33.5229 27.6028 33.3236 28.7555 33.3236 30.2635V36.9455H29.4496V22.7495H32.4136L32.9336 24.5695H33.1416C33.5749 23.8415 34.1642 23.3128 34.9096 22.9835C35.6722 22.6541 36.4609 22.4895 37.2756 22.4895C38.3156 22.4895 39.1996 22.6628 39.9276 23.0095C40.6556 23.3388 41.2102 23.8588 41.5916 24.5695H41.9296C42.3629 23.8415 42.9609 23.3128 43.7236 22.9835C44.5036 22.6541 45.3009 22.4895 46.1156 22.4895Z" fill="#373B86"/>
</svg>
