<svg width="199" height="65" viewBox="0 0 199 65" fill="none" xmlns="http://www.w3.org/2000/svg">
<circle cx="32.5" cy="32.5" r="32.5" fill="#4998F5"/>
<path d="M69.94 49.99V58H68.08V51.58H64.135V58H62.26V49.99H69.94ZM76.115 58.105C75.285 58.105 74.54 57.93 73.88 57.58C73.22 57.23 72.705 56.745 72.335 56.125C71.965 55.495 71.78 54.785 71.78 53.995C71.78 53.205 71.965 52.5 72.335 51.88C72.705 51.26 73.215 50.775 73.865 50.425C74.525 50.075 75.275 49.9 76.115 49.9C76.905 49.9 77.595 50.06 78.185 50.38C78.785 50.7 79.235 51.16 79.535 51.76L78.095 52.6C77.865 52.23 77.575 51.955 77.225 51.775C76.885 51.585 76.51 51.49 76.1 51.49C75.4 51.49 74.82 51.72 74.36 52.18C73.9 52.63 73.67 53.235 73.67 53.995C73.67 54.755 73.895 55.365 74.345 55.825C74.805 56.275 75.39 56.5 76.1 56.5C76.51 56.5 76.885 56.41 77.225 56.23C77.575 56.04 77.865 55.76 78.095 55.39L79.535 56.23C79.225 56.83 78.77 57.295 78.17 57.625C77.58 57.945 76.895 58.105 76.115 58.105ZM81.1858 49.99H83.0608V55.27L87.4858 49.99H89.1958V58H87.3208V52.72L82.9108 58H81.1858V49.99ZM96.728 58L94.673 55.225L92.603 58H90.533L93.653 53.935L90.668 49.99H92.753L94.718 52.615L96.683 49.99H98.708L95.708 53.905L98.843 58H96.728ZM103.491 58.105C102.681 58.105 101.951 57.93 101.301 57.58C100.651 57.23 100.141 56.745 99.7711 56.125C99.4111 55.495 99.2311 54.785 99.2311 53.995C99.2311 53.205 99.4111 52.5 99.7711 51.88C100.141 51.26 100.651 50.775 101.301 50.425C101.951 50.075 102.681 49.9 103.491 49.9C104.311 49.9 105.046 50.075 105.696 50.425C106.346 50.775 106.851 51.26 107.211 51.88C107.581 52.5 107.766 53.205 107.766 53.995C107.766 54.785 107.581 55.495 107.211 56.125C106.851 56.745 106.346 57.23 105.696 57.58C105.046 57.93 104.311 58.105 103.491 58.105ZM103.491 56.5C104.181 56.5 104.751 56.27 105.201 55.81C105.651 55.35 105.876 54.745 105.876 53.995C105.876 53.245 105.651 52.64 105.201 52.18C104.751 51.72 104.181 51.49 103.491 51.49C102.801 51.49 102.231 51.72 101.781 52.18C101.341 52.64 101.121 53.245 101.121 53.995C101.121 54.745 101.341 55.35 101.781 55.81C102.231 56.27 102.801 56.5 103.491 56.5ZM116.791 49.99V58H114.916V51.58H111.916L111.841 53.17C111.791 54.23 111.691 55.12 111.541 55.84C111.401 56.55 111.156 57.115 110.806 57.535C110.466 57.945 109.996 58.15 109.396 58.15C109.116 58.15 108.771 58.095 108.361 57.985L108.451 56.41C108.591 56.44 108.711 56.455 108.811 56.455C109.191 56.455 109.476 56.305 109.666 56.005C109.856 55.695 109.976 55.33 110.026 54.91C110.086 54.48 110.136 53.87 110.176 53.08L110.311 49.99H116.791ZM122.886 58.105C122.076 58.105 121.346 57.93 120.696 57.58C120.046 57.23 119.536 56.745 119.166 56.125C118.806 55.495 118.626 54.785 118.626 53.995C118.626 53.205 118.806 52.5 119.166 51.88C119.536 51.26 120.046 50.775 120.696 50.425C121.346 50.075 122.076 49.9 122.886 49.9C123.706 49.9 124.441 50.075 125.091 50.425C125.741 50.775 126.246 51.26 126.606 51.88C126.976 52.5 127.161 53.205 127.161 53.995C127.161 54.785 126.976 55.495 126.606 56.125C126.246 56.745 125.741 57.23 125.091 57.58C124.441 57.93 123.706 58.105 122.886 58.105ZM122.886 56.5C123.576 56.5 124.146 56.27 124.596 55.81C125.046 55.35 125.271 54.745 125.271 53.995C125.271 53.245 125.046 52.64 124.596 52.18C124.146 51.72 123.576 51.49 122.886 51.49C122.196 51.49 121.626 51.72 121.176 52.18C120.736 52.64 120.516 53.245 120.516 53.995C120.516 54.745 120.736 55.35 121.176 55.81C121.626 56.27 122.196 56.5 122.886 56.5ZM135.163 51.58H130.888V58H129.013V49.99H135.163V51.58ZM144.243 58.105C143.433 58.105 142.703 57.93 142.053 57.58C141.403 57.23 140.893 56.745 140.523 56.125C140.163 55.495 139.983 54.785 139.983 53.995C139.983 53.205 140.163 52.5 140.523 51.88C140.893 51.26 141.403 50.775 142.053 50.425C142.703 50.075 143.433 49.9 144.243 49.9C145.063 49.9 145.798 50.075 146.448 50.425C147.098 50.775 147.603 51.26 147.963 51.88C148.333 52.5 148.518 53.205 148.518 53.995C148.518 54.785 148.333 55.495 147.963 56.125C147.603 56.745 147.098 57.23 146.448 57.58C145.798 57.93 145.063 58.105 144.243 58.105ZM144.243 56.5C144.933 56.5 145.503 56.27 145.953 55.81C146.403 55.35 146.628 54.745 146.628 53.995C146.628 53.245 146.403 52.64 145.953 52.18C145.503 51.72 144.933 51.49 144.243 51.49C143.553 51.49 142.983 51.72 142.533 52.18C142.093 52.64 141.873 53.245 141.873 53.995C141.873 54.745 142.093 55.35 142.533 55.81C142.983 56.27 143.553 56.5 144.243 56.5ZM150.37 49.99H152.245V53.245H156.28V49.99H158.155V58H156.28V54.835H152.245V58H150.37V49.99ZM167.928 49.99V58H166.053V51.58H163.053L162.978 53.17C162.928 54.23 162.828 55.12 162.678 55.84C162.538 56.55 162.293 57.115 161.943 57.535C161.603 57.945 161.133 58.15 160.533 58.15C160.253 58.15 159.908 58.095 159.498 57.985L159.588 56.41C159.728 56.44 159.848 56.455 159.948 56.455C160.328 56.455 160.613 56.305 160.803 56.005C160.993 55.695 161.113 55.33 161.163 54.91C161.223 54.48 161.273 53.87 161.313 53.08L161.448 49.99H167.928ZM173.438 49.9C174.618 49.9 175.518 50.185 176.138 50.755C176.768 51.315 177.083 52.165 177.083 53.305V58H175.313V57.025C175.083 57.375 174.753 57.645 174.323 57.835C173.903 58.015 173.393 58.105 172.793 58.105C172.193 58.105 171.668 58.005 171.218 57.805C170.768 57.595 170.418 57.31 170.168 56.95C169.928 56.58 169.808 56.165 169.808 55.705C169.808 54.985 170.073 54.41 170.603 53.98C171.143 53.54 171.988 53.32 173.138 53.32H175.208V53.2C175.208 52.64 175.038 52.21 174.698 51.91C174.368 51.61 173.873 51.46 173.213 51.46C172.763 51.46 172.318 51.53 171.878 51.67C171.448 51.81 171.083 52.005 170.783 52.255L170.048 50.89C170.468 50.57 170.973 50.325 171.563 50.155C172.153 49.985 172.778 49.9 173.438 49.9ZM173.183 56.74C173.653 56.74 174.068 56.635 174.428 56.425C174.798 56.205 175.058 55.895 175.208 55.495V54.565H173.273C172.193 54.565 171.653 54.92 171.653 55.63C171.653 55.97 171.788 56.24 172.058 56.44C172.328 56.64 172.703 56.74 173.183 56.74ZM179.404 49.99H181.279V55.27L185.704 49.99H187.414V58H185.539V52.72L181.129 58H179.404V49.99ZM183.289 49.045C182.479 49.045 181.859 48.86 181.429 48.49C181.009 48.11 180.794 47.56 180.784 46.84H182.029C182.039 47.2 182.149 47.485 182.359 47.695C182.579 47.905 182.884 48.01 183.274 48.01C183.654 48.01 183.954 47.905 184.174 47.695C184.404 47.485 184.524 47.2 184.534 46.84H185.809C185.799 47.56 185.579 48.11 185.149 48.49C184.719 48.86 184.099 49.045 183.289 49.045ZM189.936 49.99H191.811V53.245H195.846V49.99H197.721V58H195.846V54.835H191.811V58H189.936V49.99Z" fill="#373B86"/>
<path d="M68 32C68 48.5685 54.5685 62 38 62C21.4315 62 8 48.5685 8 32C8 15.4315 21.4315 2 38 2C54.5685 2 68 15.4315 68 32Z" fill="white"/>
<path d="M65 32C65 48.0163 52.464 61 37 61C21.536 61 9 48.0163 9 32C9 15.9837 21.536 3 37 3C52.464 3 65 15.9837 65 32Z" fill="#D15573"/>
<path d="M61 32C61 46.3594 49.1355 58 34.5 58C19.8645 58 8 46.3594 8 32C8 17.6406 19.8645 6 34.5 6C49.1355 6 61 17.6406 61 32Z" fill="white"/>
<path d="M66.62 43V27.37H70.73V29.08C71.23 28.4 71.83 27.89 72.53 27.55C73.25 27.19 74.04 27.01 74.9 27.01C75.3 27.03 75.63 27.07 75.89 27.13C76.17 27.17 76.41 27.25 76.61 27.37V30.97C76.31 30.83 75.98 30.73 75.62 30.67C75.26 30.59 74.89 30.55 74.51 30.55C73.71 30.55 72.97 30.75 72.29 31.15C71.63 31.55 71.11 32.13 70.73 32.89V43H66.62ZM83.3473 43.27C81.6673 43.27 80.2973 42.83 79.2373 41.95C78.1773 41.05 77.6473 39.89 77.6473 38.47C77.6473 36.99 78.2173 35.83 79.3573 34.99C80.4973 34.15 82.0673 33.73 84.0673 33.73C84.7073 33.73 85.3473 33.78 85.9873 33.88C86.6273 33.98 87.2573 34.13 87.8773 34.33V33.22C87.8773 32.32 87.5973 31.64 87.0373 31.18C86.4773 30.72 85.6573 30.49 84.5773 30.49C83.9173 30.49 83.1973 30.6 82.4173 30.82C81.6573 31.02 80.7873 31.34 79.8073 31.78L78.3073 28.75C79.5273 28.19 80.7073 27.77 81.8473 27.49C83.0073 27.21 84.1473 27.07 85.2673 27.07C87.3673 27.07 88.9973 27.58 90.1573 28.6C91.3373 29.6 91.9273 31.02 91.9273 32.86V43H87.8773V41.92C87.2173 42.38 86.5173 42.72 85.7773 42.94C85.0573 43.16 84.2473 43.27 83.3473 43.27ZM81.5773 38.38C81.5773 38.98 81.8373 39.46 82.3573 39.82C82.8773 40.16 83.5673 40.33 84.4273 40.33C85.1073 40.33 85.7273 40.25 86.2873 40.09C86.8673 39.91 87.3973 39.66 87.8773 39.34V37C87.3773 36.8 86.8473 36.66 86.2873 36.58C85.7473 36.48 85.1773 36.43 84.5773 36.43C83.6373 36.43 82.8973 36.61 82.3573 36.97C81.8373 37.31 81.5773 37.78 81.5773 38.38ZM98.975 43.72L99.215 43.15L93.125 27.37H97.655L101.525 38.02L105.965 27.37H110.405L103.205 44.23C102.405 46.11 101.475 47.45 100.415 48.25C99.355 49.05 97.975 49.45 96.275 49.45C95.915 49.45 95.565 49.43 95.225 49.39C94.905 49.37 94.645 49.33 94.445 49.27V45.73C94.645 45.77 94.855 45.8 95.075 45.82C95.295 45.84 95.565 45.85 95.885 45.85C96.625 45.85 97.245 45.67 97.745 45.31C98.265 44.95 98.675 44.42 98.975 43.72Z" fill="#373B86"/>
<path d="M29.03 43H16.7V21.58H29.03V25.3H21.23V30.01H28.49V33.73H21.23V39.25H29.03V43ZM52.3571 26.32C54.2171 26.32 55.6171 26.8 56.5571 27.76C57.5171 28.7 57.9971 30.22 57.9971 32.32V43H53.5271V33.43C53.5271 31.07 52.7071 29.89 51.0671 29.89C49.8871 29.89 49.0471 30.31 48.5471 31.15C48.0471 31.99 47.7971 33.2 47.7971 34.78V43H43.3271V33.43C43.3271 31.07 42.5071 29.89 40.8671 29.89C39.6271 29.89 38.7671 30.36 38.2871 31.3C37.8271 32.22 37.5971 33.55 37.5971 35.29V43H33.1271V26.62H36.5471L37.1471 28.72H37.3871C37.8871 27.88 38.5671 27.27 39.4271 26.89C40.3071 26.51 41.2171 26.32 42.1571 26.32C43.3571 26.32 44.3771 26.52 45.2171 26.92C46.0571 27.3 46.6971 27.9 47.1371 28.72H47.5271C48.0271 27.88 48.7171 27.27 49.5971 26.89C50.4971 26.51 51.4171 26.32 52.3571 26.32Z" fill="#373B86"/>
</svg>
