<svg width="337" height="87" viewBox="0 0 337 87" fill="none" xmlns="http://www.w3.org/2000/svg">
<circle cx="32.5" cy="32.5" r="32.5" fill="#4998F5"/>
<path d="M68 32C68 48.5685 54.5685 62 38 62C21.4315 62 8 48.5685 8 32C8 15.4315 21.4315 2 38 2C54.5685 2 68 15.4315 68 32Z" fill="white"/>
<path d="M65 32C65 48.0163 52.464 61 37 61C21.536 61 9 48.0163 9 32C9 15.9837 21.536 3 37 3C52.464 3 65 15.9837 65 32Z" fill="#D15573"/>
<path d="M61 32C61 46.3594 49.1355 58 34.5 58C19.8645 58 8 46.3594 8 32C8 17.6406 19.8645 6 34.5 6C49.1355 6 61 17.6406 61 32Z" fill="white"/>
<path d="M66.62 43V27.37H70.73V29.08C71.23 28.4 71.83 27.89 72.53 27.55C73.25 27.19 74.04 27.01 74.9 27.01C75.3 27.03 75.63 27.07 75.89 27.13C76.17 27.17 76.41 27.25 76.61 27.37V30.97C76.31 30.83 75.98 30.73 75.62 30.67C75.26 30.59 74.89 30.55 74.51 30.55C73.71 30.55 72.97 30.75 72.29 31.15C71.63 31.55 71.11 32.13 70.73 32.89V43H66.62ZM83.3473 43.27C81.6673 43.27 80.2973 42.83 79.2373 41.95C78.1773 41.05 77.6473 39.89 77.6473 38.47C77.6473 36.99 78.2173 35.83 79.3573 34.99C80.4973 34.15 82.0673 33.73 84.0673 33.73C84.7073 33.73 85.3473 33.78 85.9873 33.88C86.6273 33.98 87.2573 34.13 87.8773 34.33V33.22C87.8773 32.32 87.5973 31.64 87.0373 31.18C86.4773 30.72 85.6573 30.49 84.5773 30.49C83.9173 30.49 83.1973 30.6 82.4173 30.82C81.6573 31.02 80.7873 31.34 79.8073 31.78L78.3073 28.75C79.5273 28.19 80.7073 27.77 81.8473 27.49C83.0073 27.21 84.1473 27.07 85.2673 27.07C87.3673 27.07 88.9973 27.58 90.1573 28.6C91.3373 29.6 91.9273 31.02 91.9273 32.86V43H87.8773V41.92C87.2173 42.38 86.5173 42.72 85.7773 42.94C85.0573 43.16 84.2473 43.27 83.3473 43.27ZM81.5773 38.38C81.5773 38.98 81.8373 39.46 82.3573 39.82C82.8773 40.16 83.5673 40.33 84.4273 40.33C85.1073 40.33 85.7273 40.25 86.2873 40.09C86.8673 39.91 87.3973 39.66 87.8773 39.34V37C87.3773 36.8 86.8473 36.66 86.2873 36.58C85.7473 36.48 85.1773 36.43 84.5773 36.43C83.6373 36.43 82.8973 36.61 82.3573 36.97C81.8373 37.31 81.5773 37.78 81.5773 38.38ZM98.975 43.72L99.215 43.15L93.125 27.37H97.655L101.525 38.02L105.965 27.37H110.405L103.205 44.23C102.405 46.11 101.475 47.45 100.415 48.25C99.355 49.05 97.975 49.45 96.275 49.45C95.915 49.45 95.565 49.43 95.225 49.39C94.905 49.37 94.645 49.33 94.445 49.27V45.73C94.645 45.77 94.855 45.8 95.075 45.82C95.295 45.84 95.565 45.85 95.885 45.85C96.625 45.85 97.245 45.67 97.745 45.31C98.265 44.95 98.675 44.42 98.975 43.72Z" fill="#373B86"/>
<path d="M29.03 43H16.7V21.58H29.03V25.3H21.23V30.01H28.49V33.73H21.23V39.25H29.03V43ZM52.3571 26.32C54.2171 26.32 55.6171 26.8 56.5571 27.76C57.5171 28.7 57.9971 30.22 57.9971 32.32V43H53.5271V33.43C53.5271 31.07 52.7071 29.89 51.0671 29.89C49.8871 29.89 49.0471 30.31 48.5471 31.15C48.0471 31.99 47.7971 33.2 47.7971 34.78V43H43.3271V33.43C43.3271 31.07 42.5071 29.89 40.8671 29.89C39.6271 29.89 38.7671 30.36 38.2871 31.3C37.8271 32.22 37.5971 33.55 37.5971 35.29V43H33.1271V26.62H36.5471L37.1471 28.72H37.3871C37.8871 27.88 38.5671 27.27 39.4271 26.89C40.3071 26.51 41.2171 26.32 42.1571 26.32C43.3571 26.32 44.3771 26.52 45.2171 26.92C46.0571 27.3 46.6971 27.9 47.1371 28.72H47.5271C48.0271 27.88 48.7171 27.27 49.5971 26.89C50.4971 26.51 51.4171 26.32 52.3571 26.32Z" fill="#373B86"/>
</svg>
